<svg xmlns="http://www.w3.org/2000/svg" height="40" viewBox="0 96 960 960" width="40"><path d="M460.333 922.333 382 844H228q-24 0-40-16t-16-40V284q0-24 16-40t40-16h504q24 0 40 16t16 40v504q0 24-16 40t-40 16H578l-78.333 78.333q-8.334 8.334-19.667 8.334-11.333 0-19.667-8.334ZM482 729q9.667 0 16.5-6.833 6.833-6.834 6.833-16.5 0-9.667-6.833-16.834-6.833-7.166-16.5-7.166t-16.833 7.166Q458 696 458 705.667q0 9.666 7.167 16.5Q472.333 729 482 729Zm9.333-138q1.334-19 12.334-34.5T534 521.667q25.667-25.667 38.167-46.834 12.5-21.166 12.5-47.166 0-45.667-28.5-70.167T483.333 333q-35 0-63.333 16.333-28.333 16.334-41 40.334-1.667 4.333.5 9.833t7.5 6.833q5 2 9.833 0 4.834-2 7.834-6.333 11.333-18 29.666-29.5 18.334-11.5 47-11.5 41 0 59.834 20.5Q560 400 560 427.667q0 21.666-10.667 39.666-10.666 18-29.333 35Q493 529 480.167 549.5 467.333 570 465.333 591q0 6 3.667 9.667 3.667 3.666 9 3.666 5 0 8.667-3.666 3.666-3.667 4.666-9.667Z"/></svg>