<svg xmlns="http://www.w3.org/2000/svg" height="40" viewBox="0 96 960 960" width="40"><path d="M482.019 729q9.648 0 16.481-6.732 6.833-6.732 6.833-16.62 0-9.648-6.732-16.815-6.732-7.166-16.62-7.166-9.648 0-16.814 7.185Q458 696.038 458 705.685q0 9.648 7.185 16.482Q472.371 729 482.019 729Zm9.314-138q1.334-19 12.334-34.5T534 521.667q25.667-25.667 38.167-46.811 12.5-21.145 12.5-47.189 0-45.667-28.5-70.167T483.333 333q-35 0-63.333 16.333-28.333 16.334-41 40.334-1.667 4.333.5 9.833t7.5 6.833q5 2 9.833 0 4.834-2 7.834-6.333 11.333-18 29.666-29.5 18.334-11.5 47-11.5 41.301 0 59.984 20.5T560 427.667q0 21.666-10.667 39.666-10.666 18-29.333 35Q493 529 480.167 549.5 467.333 570 465.333 591q0 6.235 3.611 9.784 3.611 3.549 9.056 3.549 5.296 0 8.926-3.616 3.629-3.616 4.407-9.717Zm-31 331.333L382 844H228q-23.85 0-39.925-16Q172 812 172 788V284q0-23.85 16.075-39.925Q204.15 228 228 228h504q24 0 40 16.075T788 284v504q0 24-16 40t-40 16H578l-78.333 78.333q-8.334 8.334-19.667 8.334-11.333 0-19.667-8.334ZM228 820h164.667L480 907.333 567.333 820H732q14 0 23-9t9-23V284q0-14-9-23t-23-9H228q-14 0-23 9t-9 23v504q0 14 9 23t23 9Zm-32-568v568-568Z"/></svg>